<svg xmlns="http://www.w3.org/2000/svg" version="1.1" xmlns:xlink="http://www.w3.org/1999/xlink" xmlns:svgjs="http://svgjs.dev/svgjs" width="1500" height="939" viewBox="0 0 1500 939"><g transform="matrix(1,0,0,1,-0.9090909090909918,-1.5145161290323017)"><svg viewBox="0 0 396 248" data-background-color="#21044c" preserveAspectRatio="xMidYMid meet" height="939" width="1500" xmlns="http://www.w3.org/2000/svg" xmlns:xlink="http://www.w3.org/1999/xlink"><g id="tight-bounds" transform="matrix(1,0,0,1,0.2400000000000091,0.4000000000000057)"><svg viewBox="0 0 395.52 247.2" height="247.2" width="395.52"><g><svg></svg></g><g><svg viewBox="0 0 395.52 247.2" height="247.2" width="395.52"><g transform="matrix(1,0,0,1,81.92370989010989,47.215199999999996)"><svg viewBox="0 0 231.6725802197802 152.7696" height="152.7696" width="231.6725802197802"><g><svg viewBox="0 0 231.6725802197802 152.7696" height="152.7696" width="231.6725802197802"><g><svg viewBox="0 0 231.6725802197802 152.7696" height="152.7696" width="231.6725802197802"><g id="textblocktransform"><svg viewBox="0 0 231.6725802197802 152.7696" height="152.7696" width="231.6725802197802" id="textblock"><g><svg viewBox="0 0 231.6725802197802 152.7696" height="152.7696" width="231.6725802197802"><g transform="matrix(1,0,0,1,0,0)"><svg width="231.6725802197802" viewBox="2.15 -31.7 48.300000000000004 31.849999999999998" height="152.7696" data-palette-color="#ffffff"><path d="M3 0.15L3 0.15Q2.55 0.15 2.35-0.2 2.15-0.55 2.15-0.95L2.15-0.95Q2.2-1.8 2.55-1.9 2.9-2 3.4-2L3.4-2Q5-2 5.65-2.58 6.3-3.15 6.48-4.03 6.65-4.9 6.65-5.85L6.65-5.85 6.65-25.7Q6.65-26.65 6.48-27.53 6.3-28.4 5.65-28.98 5-29.55 3.4-29.55L3.4-29.55Q2.9-29.55 2.55-29.65 2.2-29.75 2.15-30.6L2.15-30.6Q2.15-31 2.35-31.35 2.55-31.7 3-31.7L3-31.7Q4.6-31.65 6.03-31.6 7.45-31.55 8.95-31.55L8.95-31.55 23.4-31.55Q23.95-31.55 24.33-31.3 24.7-31.05 24.7-30.35L24.7-30.35 24.85-23.35Q24.85-22.85 24.38-22.6 23.9-22.35 23.5-22.35L23.5-22.35Q22.95-22.35 22.48-22.58 22-22.8 21.9-23.25L21.9-23.25Q21.6-25.5 21.13-26.88 20.65-28.25 19.73-28.88 18.8-29.5 17.05-29.55L17.05-29.55 11.6-29.55 11.6-16.55 20.55-16.55Q20.95-16.5 21.15-16.15 21.35-15.8 21.35-15.4L21.35-15.4Q21.35-15.05 21.15-14.73 20.95-14.4 20.55-14.4L20.55-14.4 11.6-14.4 11.6-5.85Q11.65-4.9 11.8-4.03 11.95-3.15 12.63-2.58 13.3-2 14.85-2L14.85-2Q15.35-2 15.7-1.9 16.05-1.8 16.1-0.95L16.1-0.95Q16.1-0.55 15.9-0.2 15.7 0.15 15.2 0.15L15.2 0.15Q12 0 9 0L9 0Q7.5 0 6.05 0.03 4.6 0.05 3 0.15ZM28.6 0.15L28.6 0.15Q28.15 0.15 27.95-0.2 27.75-0.55 27.75-0.95L27.75-0.95Q27.8-1.8 28.15-1.9 28.5-2 29-2L29-2Q30.6-2 31.25-2.58 31.9-3.15 32.07-4.03 32.25-4.9 32.25-5.85L32.25-5.85 32.25-25.7Q32.25-26.65 32.07-27.53 31.9-28.4 31.25-28.98 30.6-29.55 29-29.55L29-29.55Q28.5-29.55 28.15-29.65 27.8-29.75 27.75-30.6L27.75-30.6Q27.75-31 27.95-31.35 28.15-31.7 28.6-31.7L28.6-31.7Q30.2-31.65 31.62-31.6 33.05-31.55 34.55-31.55L34.55-31.55 49-31.55Q49.55-31.55 49.92-31.3 50.3-31.05 50.3-30.35L50.3-30.35 50.45-23.35Q50.45-22.85 49.97-22.6 49.5-22.35 49.1-22.35L49.1-22.35Q48.55-22.35 48.07-22.58 47.6-22.8 47.5-23.25L47.5-23.25Q47.2-25.5 46.72-26.88 46.25-28.25 45.32-28.88 44.4-29.5 42.65-29.55L42.65-29.55 37.2-29.55 37.2-16.55 46.15-16.55Q46.55-16.5 46.75-16.15 46.95-15.8 46.95-15.4L46.95-15.4Q46.95-15.05 46.75-14.73 46.55-14.4 46.15-14.4L46.15-14.4 37.2-14.4 37.2-5.85Q37.25-4.9 37.4-4.03 37.55-3.15 38.22-2.58 38.9-2 40.45-2L40.45-2Q40.95-2 41.3-1.9 41.65-1.8 41.7-0.95L41.7-0.95Q41.7-0.55 41.5-0.2 41.3 0.15 40.8 0.15L40.8 0.15Q37.6 0 34.6 0L34.6 0Q33.1 0 31.65 0.03 30.2 0.05 28.6 0.15Z" opacity="1" transform="matrix(1,0,0,1,0,0)" fill="#ffffff" class="wordmark-text-0" data-fill-palette-color="primary" id="text-0"></path></svg></g></svg></g></svg></g></svg></g></svg></g></svg></g><g><path d="M239.436 0c68.262 0 123.6 55.338 123.6 123.6 0 68.262-55.338 123.6-123.6 123.6-30.402 0-58.24-10.976-79.768-29.183l11.147 0c19.26 14.022 42.974 22.294 68.621 22.295 64.458 0 116.712-52.254 116.712-116.712 0-64.458-52.254-116.712-116.712-116.712-25.647 0-49.361 8.272-68.621 22.295l-11.147 0c21.528-18.206 49.366-29.183 79.768-29.183z" fill="#ffffff" stroke="transparent" data-fill-palette-color="tertiary"></path></g></svg></g><defs></defs></svg><rect width="395.52" height="247.2" fill="none" stroke="none" visibility="hidden"></rect></g></svg></g></svg>